<svg xmlns="http://www.w3.org/2000/svg" width="536" height="528" viewBox="0 0 536 528">
<g>
<path d="M 48.00 526.42 C49.54,527.27 121.22,527.81 205.77,528.00 L 0.00 528.00 L 0.00 0.00 L 536.00 0.00 L 536.00 528.00 L 346.59 528.00 C419.96,527.83 478.42,527.36 480.22,526.59 C482.02,525.82 486.29,524.40 489.70,523.45 C495.08,521.94 500.56,518.94 509.81,512.44 C511.08,511.54 514.61,507.45 517.64,503.35 C519.70,500.57 521.41,498.31 522.85,495.87 C530.17,483.45 530.12,466.69 529.82,355.70 L 529.80 349.64 C529.63,289.43 529.15,239.82 528.72,239.39 C527.71,238.38 514.38,245.46 510.50,249.07 C507.22,252.13 500.54,254.96 494.87,255.71 C491.90,256.10 490.95,255.77 489.62,253.87 C488.73,252.60 488.00,250.79 488.00,249.86 C488.00,248.93 487.44,247.94 486.75,247.66 C486.06,247.38 486.82,247.12 488.44,247.08 C491.13,247.01 497.19,243.82 510.50,235.49 C529.95,223.30 530.94,222.54 532.55,218.55 C535.00,212.47 533.82,208.68 528.08,204.24 C519.81,197.82 492.16,181.05 489.81,181.02 C487.79,181.00 486.31,179.05 488.19,178.89 C496.30,178.22 496.44,178.27 500.50,182.43 C507.18,189.28 510.24,191.00 515.65,190.95 C518.32,190.92 522.53,191.03 525.00,191.20 L 529.50 191.50 L 529.76 141.00 C529.91,113.22 529.61,81.28 529.10,70.00 C528.28,52.08 527.85,48.63 525.67,42.63 C518.74,23.53 502.50,8.84 483.50,4.48 C475.87,2.72 465.75,2.64 262.89,2.72 C51.15,2.80 50.26,2.81 42.75,4.87 C34.88,7.03 29.91,9.69 20.83,16.62 C13.43,22.27 9.59,26.88 5.48,35.05 C3.55,38.87 1.53,42.00 0.99,42.00 C0.34,42.00 0.00,118.89 0.00,265.00 C0.00,408.74 0.35,488.00 0.97,488.00 C1.51,488.00 3.33,490.80 5.03,494.21 C9.51,503.25 14.63,509.52 22.00,514.97 C28.80,520.01 39.32,524.99 43.22,525.01 C44.47,525.02 46.62,525.65 48.00,526.42 ZM 125.70 388.10 C121.20,388.94 104.11,389.06 94.00,388.32 C86.93,387.80 59.98,384.00 55.00,382.82 C52.53,382.24 46.76,380.01 42.19,377.88 C37.62,375.75 33.46,374.00 32.94,374.00 C32.42,374.00 32.00,373.62 32.00,373.15 C32.00,372.69 30.18,371.48 27.96,370.48 C25.55,369.40 24.11,368.15 24.40,367.39 C24.67,366.70 24.58,365.95 24.19,365.73 C22.98,365.03 26.14,366.00 37.98,369.99 C55.81,375.99 71.35,379.08 88.50,380.02 C113.09,381.36 130.11,379.00 148.11,371.74 C173.82,361.37 190.62,342.91 201.03,313.57 C205.27,301.62 205.18,302.10 215.49,240.00 C220.74,208.38 226.87,171.93 229.11,159.00 C231.35,146.07 234.10,129.88 235.22,123.00 C236.33,116.12 237.37,110.35 237.53,110.18 C237.69,110.00 239.20,110.57 240.89,111.44 C245.08,113.61 245.59,116.59 243.67,127.90 C242.05,137.45 238.65,161.14 236.98,174.50 C236.50,178.35 235.47,183.56 234.70,186.08 C233.93,188.60 233.51,192.10 233.76,193.84 C234.02,195.59 233.69,199.16 233.02,201.76 C232.36,204.37 231.61,207.62 231.37,209.00 C231.13,210.38 230.29,213.52 229.50,216.00 C227.83,221.24 223.99,243.39 224.02,247.61 C224.03,250.22 221.69,264.49 218.87,279.00 C218.28,282.02 217.43,286.91 216.97,289.85 C214.67,304.75 209.71,322.18 204.68,333.00 C193.90,356.21 182.43,367.90 159.60,378.95 C149.77,383.71 145.90,385.03 139.00,386.00 C134.32,386.66 128.34,387.60 125.70,388.10 ZM 310.87 307.11 C314.10,310.35 316.30,313.00 315.76,313.00 C314.02,313.00 302.28,300.20 299.51,295.27 C286.75,272.64 288.78,228.01 303.92,197.88 C314.44,176.94 329.86,164.23 352.50,157.82 C359.58,155.82 362.80,155.56 380.50,155.53 C401.05,155.50 403.87,155.87 419.67,160.73 C423.96,162.05 425.34,162.10 427.88,161.05 C431.74,159.45 433.66,156.90 445.74,137.27 L 455.61 121.24 L 459.56 123.91 C461.73,125.38 463.64,127.55 463.81,128.73 C464.10,130.72 458.58,140.49 448.70,155.44 C442.95,164.14 435.39,171.34 432.69,170.66 C431.49,170.36 426.90,169.17 422.50,168.01 C407.83,164.13 405.60,163.85 388.00,163.75 C367.27,163.62 360.81,165.01 345.07,173.01 C333.14,179.07 327.85,183.62 320.31,194.28 C312.49,205.34 310.52,208.85 307.40,217.31 C302.20,231.43 300.42,241.16 299.49,260.52 C298.88,273.23 299.03,276.48 300.49,281.69 C301.44,285.07 302.02,288.44 301.77,289.17 C301.53,289.90 302.15,291.98 303.16,293.78 C304.17,295.58 305.00,298.00 305.00,299.14 C305.00,300.34 307.48,303.71 310.87,307.11 ZM 370.50 388.46 C365.00,388.72 358.48,389.13 356.00,389.36 C350.75,389.84 346.34,389.27 328.00,385.67 C307.72,381.70 306.63,381.37 299.29,376.82 C295.56,374.51 290.02,371.24 286.98,369.56 C281.61,366.58 270.59,356.00 272.86,356.00 C273.49,356.00 274.00,356.42 274.00,356.93 C274.00,357.44 275.24,358.50 276.75,359.29 C278.26,360.09 282.88,362.64 287.00,364.96 C296.39,370.26 308.17,374.21 324.26,377.47 C340.81,380.82 369.06,381.08 387.06,378.04 C407.49,374.59 426.69,367.18 441.00,357.20 C452.33,349.32 468.66,332.22 472.11,324.66 C473.12,322.44 473.57,322.24 475.35,323.19 C478.33,324.78 480.93,328.18 480.97,330.52 C480.99,331.63 479.72,334.11 478.16,336.02 C476.60,337.93 474.11,341.59 472.63,344.15 C468.28,351.64 446.70,369.46 438.12,372.65 C435.58,373.60 431.13,375.86 428.23,377.69 C425.33,379.51 422.27,381.00 421.41,381.00 C420.56,381.00 418.98,381.48 417.89,382.06 C413.07,384.64 392.81,387.37 370.50,388.46 ZM 385.91 439.53 C384.48,440.28 381.10,441.14 378.41,441.44 C374.28,441.90 372.54,441.51 367.50,438.97 C364.20,437.32 360.94,435.18 360.25,434.23 C355.79,428.03 356.95,428.30 332.27,427.70 C319.75,427.39 303.42,426.64 296.00,426.03 C286.04,425.22 279.64,425.23 271.58,426.06 C265.58,426.69 257.93,426.92 254.58,426.59 C251.24,426.26 235.90,425.75 220.50,425.46 C205.10,425.17 190.02,424.76 187.00,424.56 C183.98,424.35 171.82,423.51 160.00,422.69 C148.18,421.87 136.49,421.13 134.03,421.04 C129.49,420.89 128.21,420.46 129.24,419.42 C130.15,418.52 193.05,418.88 198.09,419.83 C200.59,420.29 203.50,420.41 204.56,420.09 C207.20,419.29 324.98,419.65 342.75,420.52 C352.78,421.00 357.00,421.56 357.00,422.41 C357.00,424.05 362.80,429.42 366.70,431.39 C379.07,437.62 393.79,424.90 390.12,411.16 C388.66,405.69 385.85,402.33 381.00,400.23 C379.00,399.36 378.07,398.51 378.82,398.25 C380.83,397.55 388.95,400.95 388.51,402.31 C388.30,402.97 389.43,405.98 391.03,409.00 L 391.50 409.90 C395.34,417.14 396.64,419.61 396.59,422.05 C396.56,423.41 396.12,424.76 395.46,426.92 C393.66,432.77 390.27,437.25 385.91,439.53 ZM 305.33 476.99 C303.04,476.99 300.56,477.16 299.83,477.36 C296.23,478.33 291.30,476.05 284.91,470.45 C279.96,466.10 271.93,464.94 267.83,467.97 C263.37,471.26 260.18,471.40 251.98,468.62 C247.87,467.22 240.69,465.58 236.04,464.96 C231.39,464.35 226.76,463.41 225.75,462.87 C224.75,462.33 222.03,462.15 219.71,462.47 C217.40,462.80 209.65,462.55 202.50,461.94 C195.35,461.32 183.65,460.70 176.50,460.56 C167.05,460.38 162.54,459.87 160.00,458.70 C158.07,457.81 156.73,457.05 157.00,457.01 C157.27,456.98 177.57,456.68 202.10,456.35 C245.36,455.76 246.75,455.80 248.10,457.67 C250.17,460.52 254.14,463.00 256.65,463.00 C257.86,463.00 260.18,461.88 261.82,460.50 C264.42,458.31 265.71,458.01 272.14,458.06 L 279.50 458.12 L 282.52 462.31 C291.71,475.05 309.65,471.40 313.09,456.10 C314.81,448.45 311.80,442.06 304.00,436.79 C301.80,435.31 301.73,435.10 303.43,435.05 C305.44,435.00 312.99,442.42 315.49,446.92 C319.10,453.40 320.14,456.47 319.54,458.92 C319.20,460.34 318.49,463.52 317.97,466.00 C316.66,472.22 311.20,476.96 305.33,476.99 ZM 444.37 272.05 C441.51,273.14 432.67,273.33 431.67,272.33 C431.30,271.97 431.00,270.84 431.00,269.84 C431.00,268.83 429.43,266.27 427.51,264.15 C425.60,262.02 423.95,259.44 423.86,258.39 C423.45,253.91 424.07,251.00 425.43,251.00 C426.51,251.00 426.67,251.67 426.08,253.75 C424.78,258.30 425.46,261.40 428.08,262.79 C430.92,264.30 437.70,263.74 439.58,261.83 C440.29,261.10 443.14,253.98 445.89,246.00 C448.65,238.02 452.77,226.32 455.05,220.00 C457.34,213.68 460.92,203.55 463.00,197.50 C465.09,191.45 467.97,183.41 469.40,179.63 C470.83,175.85 472.00,171.47 472.00,169.88 C472.00,166.10 468.80,163.00 464.90,163.00 C461.86,163.00 456.12,165.68 455.88,167.22 C455.70,168.31 455.58,168.72 453.42,175.75 C451.37,182.43 450.00,183.79 450.00,179.14 C450.00,176.33 454.83,166.09 457.67,162.85 C461.29,158.74 470.29,160.66 472.13,165.94 C472.67,167.49 474.89,170.18 477.05,171.92 C480.85,174.97 482.10,178.20 480.00,179.50 C479.45,179.84 479.00,181.49 479.00,183.18 C479.00,184.96 476.66,190.66 473.38,196.87 C469.69,203.86 466.96,210.71 465.42,216.87 C464.12,222.02 462.15,228.12 461.03,230.43 C458.48,235.70 449.94,260.48 449.29,264.50 C448.58,268.86 447.21,270.97 444.37,272.05 ZM 398.20 222.80 C398.86,223.46 399.20,223.99 398.95,223.98 C397.69,223.94 383.00,214.67 383.00,213.92 C383.00,213.44 384.01,212.43 385.25,211.69 C405.52,199.45 411.34,195.29 412.89,191.92 C414.16,189.15 414.83,188.58 415.84,189.42 C421.04,193.73 422.00,195.10 421.98,198.20 C421.96,202.73 421.34,203.44 414.74,206.35 C407.51,209.55 397.00,217.55 397.00,219.86 C397.00,220.82 397.54,222.14 398.20,222.80 ZM 417.66 254.25 C416.72,255.76 415.63,256.94 415.23,256.87 C414.83,256.81 412.65,256.45 410.38,256.07 C405.61,255.29 401.42,252.83 400.53,250.28 C400.19,249.30 397.21,247.22 393.91,245.66 C390.60,244.09 386.75,241.75 385.34,240.44 C383.93,239.13 381.95,237.80 380.94,237.48 C379.93,237.16 378.83,236.04 378.50,234.99 C378.03,233.51 377.26,233.20 375.16,233.62 C372.97,234.06 372.16,233.67 371.09,231.66 C370.35,230.29 369.18,229.38 368.49,229.64 C367.28,230.11 363.00,225.61 363.00,223.87 C363.00,222.04 365.48,223.35 384.17,235.00 C394.75,241.60 404.38,247.00 405.57,247.00 C408.44,247.00 412.63,243.61 413.37,240.68 C413.69,239.39 413.52,236.79 412.99,234.92 L 412.03 231.50 L 416.42 236.17 C421.34,241.42 423.41,248.13 420.78,250.32 C420.00,250.97 418.59,252.74 417.66,254.25 ZM 338.18 412.00 C328.36,412.00 313.61,412.17 305.41,412.37 C297.21,412.58 285.42,412.47 279.22,412.12 C268.62,411.54 268.13,411.42 271.02,410.14 C273.30,409.14 275.11,409.04 277.93,409.75 C280.28,410.35 282.38,410.37 283.39,409.80 C284.30,409.29 290.10,409.12 296.27,409.43 C316.49,410.42 326.40,409.64 331.11,406.70 C332.36,405.92 334.27,405.95 338.00,406.81 C340.83,407.46 344.58,408.01 346.33,408.02 C348.07,408.02 350.13,408.43 350.91,408.92 C352.59,409.98 354.97,409.25 355.07,407.64 C355.10,407.01 357.65,404.36 360.73,401.75 C365.94,397.33 366.71,397.00 371.86,397.00 C375.78,397.00 377.09,397.31 376.34,398.06 C375.75,398.65 373.30,398.99 370.89,398.81 C366.91,398.53 366.10,398.89 362.28,402.61 C359.96,404.87 357.60,407.91 357.05,409.36 L 356.05 412.00 ZM 171.96 163.07 C171.40,164.13 170.61,164.94 170.21,164.86 C164.06,163.64 159.07,163.42 146.29,163.83 C130.50,164.33 128.75,163.98 127.75,160.14 C127.35,158.61 128.02,158.31 132.39,158.12 C135.20,158.00 139.15,157.42 141.16,156.82 C143.82,156.03 145.70,156.05 148.06,156.87 C152.07,158.27 156.68,158.33 157.50,157.00 C158.17,155.92 168.84,155.62 171.42,156.61 C173.23,157.30 173.48,160.24 171.96,163.07 ZM 483.13 244.66 C483.74,245.40 483.99,246.00 483.68,246.00 C482.53,246.00 480.00,241.49 480.00,239.43 C480.00,235.38 482.17,231.11 485.51,228.56 C487.36,227.15 489.29,226.00 489.81,226.00 C490.33,226.00 492.65,224.17 494.96,221.92 C497.27,219.68 499.76,218.08 500.50,218.36 C501.23,218.64 502.12,218.12 502.47,217.21 C502.83,216.29 502.64,215.38 502.05,215.18 C501.47,214.99 501.22,214.46 501.50,214.00 C502.18,212.90 494.07,207.00 491.87,207.00 C490.92,207.00 489.86,206.12 489.52,205.05 C489.18,203.98 488.02,202.82 486.95,202.48 C485.88,202.14 485.00,201.33 485.00,200.68 C485.00,200.03 483.87,198.19 482.50,196.59 C479.99,193.68 479.05,188.00 481.07,188.00 C481.65,188.00 481.99,189.24 481.82,190.75 C481.42,194.24 482.81,195.39 499.75,205.55 C507.03,209.92 512.98,213.73 512.96,214.00 C512.93,214.57 507.31,218.09 495.12,225.18 C486.51,230.19 481.09,234.00 482.57,234.00 C483.02,234.00 482.86,234.54 482.20,235.20 C480.66,236.74 480.63,242.00 482.17,242.00 C482.81,242.00 483.04,242.30 482.68,242.66 C482.31,243.02 482.52,243.92 483.13,244.66 ZM 255.57 172.75 C253.56,176.19 251.69,179.00 251.42,179.00 C251.15,179.00 250.69,178.21 250.40,177.25 C250.10,176.29 249.44,174.73 248.94,173.79 C248.44,172.85 248.28,171.42 248.59,170.62 C249.31,168.75 252.35,167.55 252.81,168.94 C253.21,170.14 255.06,170.41 254.88,169.25 C254.49,166.77 255.13,164.96 256.17,165.61 C256.94,166.08 257.14,165.80 256.75,164.79 C256.35,163.76 256.71,163.29 257.83,163.37 C258.77,163.44 259.51,162.77 259.51,161.83 C259.52,160.91 261.44,158.23 263.79,155.86 C266.43,153.20 267.83,150.99 267.47,150.06 C267.15,149.24 267.21,148.88 267.61,149.27 C268.00,149.66 268.88,149.51 269.58,148.94 C270.52,148.15 270.77,148.33 270.58,149.64 C270.44,150.60 269.80,151.57 269.16,151.78 C268.52,151.99 268.00,152.69 268.01,153.33 C268.01,153.98 266.69,155.62 265.06,157.00 C263.43,158.38 261.96,160.18 261.80,161.00 C261.63,161.82 261.08,162.80 260.57,163.17 C260.06,163.54 259.55,164.44 259.44,165.17 C259.33,165.90 257.59,169.31 255.57,172.75 ZM 250.00 447.50 C247.49,450.17 244.72,450.89 245.58,448.65 C245.86,447.91 247.45,446.31 249.09,445.09 C253.00,442.20 259.23,442.06 262.91,444.78 C264.98,446.31 267.13,446.78 271.82,446.74 C275.80,446.70 278.00,446.27 278.00,445.52 C278.00,444.88 279.61,442.48 281.58,440.18 C284.11,437.22 285.93,436.00 287.81,436.00 C290.44,436.00 290.44,436.02 286.95,438.39 C285.02,439.70 282.56,442.40 281.49,444.39 L 279.55 448.00 L 271.40 448.00 C265.37,448.00 262.92,447.61 262.00,446.50 C259.90,443.97 252.76,444.56 250.00,447.50 ZM 234.35 269.25 C234.99,280.06 233.38,280.95 232.56,270.25 C231.04,250.39 230.90,246.00 231.80,246.00 C232.32,246.00 233.05,243.68 233.43,240.85 C234.71,231.17 235.78,237.48 234.81,249.00 C234.27,255.32 234.07,264.44 234.35,269.25 ZM 120.09 140.75 C119.35,145.29 118.36,149.00 117.88,149.00 C117.39,149.00 116.98,148.89 116.96,148.75 C115.95,142.02 115.93,140.84 116.85,141.40 C117.51,141.82 117.87,140.30 117.85,137.16 C117.83,134.48 118.30,131.43 118.89,130.39 C119.48,129.35 120.37,126.93 120.86,125.00 C121.59,122.11 121.88,121.82 122.52,123.35 C122.98,124.45 122.84,125.48 122.17,125.90 C121.55,126.28 121.13,127.92 121.23,129.54 C121.33,131.17 120.82,136.21 120.09,140.75 ZM 153.47 273.75 C152.52,279.99 150.65,279.13 151.29,272.75 C151.58,269.86 152.13,266.71 152.51,265.75 C153.63,262.97 155.21,263.72 154.63,266.75 C154.34,268.26 153.82,271.41 153.47,273.75 ZM 353.70 103.32 C351.34,103.64 348.64,104.20 347.70,104.56 C345.35,105.46 345.54,103.31 347.93,102.04 C350.27,100.78 358.00,100.65 358.00,101.86 C358.00,102.34 356.07,102.99 353.70,103.32 ZM 363.16 221.12 C363.90,221.59 364.05,221.96 363.50,221.95 C359.77,221.89 357.94,216.49 359.95,211.50 C360.59,209.91 360.91,210.47 361.49,214.23 C361.89,216.84 362.13,219.26 362.03,219.62 C361.92,219.98 362.43,220.66 363.16,221.12 ZM 235.42 282.53 C235.77,283.93 235.61,285.85 235.06,286.79 C234.43,287.87 234.05,288.02 234.03,287.19 C234.01,286.47 233.55,286.16 233.00,286.50 C232.43,286.85 232.00,286.01 232.00,284.56 C232.00,283.15 232.50,282.00 233.11,282.00 C233.72,282.00 233.95,281.30 233.62,280.45 C233.29,279.59 233.42,279.14 233.90,279.44 C234.38,279.74 235.07,281.13 235.42,282.53 ZM 438.85 218.00 C437.72,221.23 435.99,222.95 436.01,220.81 C436.04,217.89 437.31,215.00 438.56,215.00 C439.61,215.00 439.67,215.65 438.85,218.00 ZM 261.00 412.00 C259.04,413.27 255.28,413.27 254.50,412.00 C254.12,411.39 255.57,411.01 258.19,411.02 C261.34,411.03 262.10,411.29 261.00,412.00 ZM 147.00 456.00 C148.21,456.78 148.07,456.97 146.25,456.98 C145.01,456.99 144.00,456.55 144.00,456.00 C144.00,454.75 145.06,454.75 147.00,456.00 Z" fill="rgb(29,44,59)"/>
<path d="M 48.00 526.42 C46.62,525.65 44.47,525.02 43.22,525.01 C39.32,524.99 28.80,520.01 22.00,514.97 C14.63,509.52 9.51,503.25 5.03,494.21 C3.33,490.80 1.51,488.00 0.97,488.00 C0.35,488.00 0.00,408.74 0.00,265.00 C0.00,118.89 0.34,42.00 0.99,42.00 C1.53,42.00 3.55,38.87 5.48,35.05 C9.59,26.88 13.43,22.27 20.83,16.62 C29.91,9.69 34.88,7.03 42.75,4.87 C50.26,2.81 51.15,2.80 262.89,2.72 C465.75,2.64 475.87,2.72 483.50,4.48 C502.50,8.84 518.74,23.53 525.67,42.63 C527.85,48.63 528.28,52.08 529.10,70.00 C529.61,81.28 529.91,113.22 529.76,141.00 L 529.50 191.50 L 525.00 191.20 C522.53,191.03 518.32,190.92 515.65,190.95 C510.24,191.00 507.18,189.28 500.50,182.43 C496.44,178.27 496.30,178.22 488.19,178.89 C486.31,179.05 487.79,181.00 489.81,181.02 C490.20,181.02 491.29,181.49 492.87,182.30 C490.47,181.22 489.23,181.09 487.86,181.25 C483.95,181.69 482.04,184.57 482.01,190.08 C482.00,193.21 482.54,194.66 488.24,198.48 C482.13,194.48 481.54,193.18 481.82,190.75 C481.99,189.24 481.65,188.00 481.07,188.00 C479.05,188.00 479.99,193.68 482.50,196.59 C483.87,198.19 485.00,200.03 485.00,200.68 C485.00,201.33 485.88,202.14 486.95,202.48 C488.02,202.82 489.18,203.98 489.52,205.05 C489.86,206.12 490.92,207.00 491.87,207.00 C494.07,207.00 502.18,212.90 501.50,214.00 C501.22,214.46 501.47,214.99 502.05,215.18 C502.64,215.38 502.83,216.29 502.47,217.21 C502.12,218.12 501.23,218.64 500.50,218.36 C499.76,218.08 497.27,219.68 494.96,221.92 C492.65,224.17 490.33,226.00 489.81,226.00 C489.29,226.00 487.36,227.15 485.51,228.56 C482.17,231.11 480.00,235.38 480.00,239.43 C480.00,241.49 482.53,246.00 483.68,246.00 C483.99,246.00 483.74,245.40 483.13,244.66 C482.52,243.92 482.31,243.02 482.68,242.66 C483.04,242.30 482.81,242.00 482.17,242.00 C480.63,242.00 480.66,236.74 482.20,235.20 C482.86,234.54 483.02,234.00 482.57,234.00 C481.09,234.00 486.51,230.19 495.12,225.18 C498.78,223.05 501.86,221.24 504.36,219.74 C500.94,221.83 496.75,224.32 492.29,226.88 C488.33,229.17 484.39,232.03 483.54,233.24 C481.08,236.76 481.59,241.53 484.74,244.46 C486.16,245.77 488.10,246.86 489.22,246.99 C488.94,247.04 488.67,247.07 488.44,247.08 C486.82,247.12 486.06,247.38 486.75,247.66 C487.44,247.94 488.00,248.93 488.00,249.86 C488.00,250.79 488.73,252.60 489.62,253.87 C490.95,255.77 491.90,256.10 494.87,255.71 C500.54,254.96 507.22,252.13 510.50,249.07 C514.38,245.46 527.71,238.38 528.72,239.39 C529.15,239.82 529.63,289.43 529.80,349.64 L 529.82 355.70 C530.12,466.69 530.17,483.45 522.85,495.87 C521.41,498.31 519.70,500.57 517.64,503.35 C514.61,507.45 511.08,511.54 509.81,512.44 C500.56,518.94 495.08,521.94 489.70,523.45 C486.29,524.40 482.02,525.82 480.22,526.59 C478.42,527.36 419.96,527.83 346.59,528.00 L 205.77 528.00 C121.22,527.81 49.54,527.27 48.00,526.42 ZM 310.87 307.11 C307.48,303.71 305.00,300.34 305.00,299.14 C305.00,298.00 304.17,295.58 303.16,293.78 C302.15,291.98 301.53,289.90 301.77,289.17 C302.02,288.44 301.44,285.07 300.49,281.69 C299.03,276.48 298.88,273.23 299.49,260.52 C300.42,241.16 302.20,231.43 307.40,217.31 C310.52,208.85 312.49,205.34 320.31,194.28 C327.85,183.62 333.14,179.07 345.07,173.01 C360.81,165.01 367.27,163.62 388.00,163.75 C405.60,163.85 407.83,164.13 422.50,168.01 C426.90,169.17 431.49,170.36 432.69,170.66 C435.39,171.34 442.95,164.14 448.70,155.44 C458.58,140.49 464.10,130.72 463.81,128.73 C463.64,127.55 461.73,125.38 459.56,123.91 L 455.61 121.24 L 447.69 134.10 C456.87,118.88 456.00,116.98 445.44,111.69 C437.94,107.94 423.93,104.12 411.56,102.46 C397.39,100.57 369.03,100.58 358.50,102.49 C355.87,102.96 352.21,103.63 348.72,104.25 C349.99,103.93 351.94,103.56 353.70,103.32 C356.07,102.99 358.00,102.34 358.00,101.86 C358.00,100.65 350.27,100.78 347.93,102.04 C346.21,102.96 345.63,104.33 346.32,104.69 C344.86,104.95 343.49,105.20 342.31,105.41 C337.80,106.22 331.73,107.99 328.81,109.35 C325.89,110.70 320.12,113.35 316.00,115.24 C292.11,126.16 271.99,144.86 257.31,169.67 C258.51,167.47 259.37,165.68 259.44,165.17 C259.55,164.44 260.06,163.54 260.57,163.17 C261.08,162.80 261.63,161.82 261.80,161.00 C261.96,160.18 263.43,158.38 265.06,157.00 C266.69,155.62 268.01,153.98 268.01,153.33 C268.00,152.69 268.52,151.99 269.16,151.78 C269.80,151.57 270.44,150.60 270.58,149.64 C270.77,148.33 270.52,148.15 269.58,148.94 C268.88,149.51 268.00,149.66 267.61,149.27 C267.21,148.88 267.15,149.24 267.47,150.06 C267.83,150.99 266.43,153.20 263.79,155.86 C261.44,158.23 259.52,160.91 259.51,161.83 C259.51,162.77 258.77,163.44 257.83,163.37 C256.71,163.29 256.35,163.76 256.75,164.79 C257.14,165.80 256.94,166.08 256.17,165.61 C255.13,164.96 254.49,166.77 254.88,169.25 C255.06,170.41 253.21,170.14 252.81,168.94 C252.35,167.55 249.31,168.75 248.59,170.62 C248.28,171.42 248.44,172.85 248.94,173.79 C249.44,174.73 250.10,176.29 250.40,177.25 C250.69,178.21 251.15,179.00 251.42,179.00 C251.66,179.00 253.19,176.74 254.95,173.79 C253.48,176.46 252.06,179.20 250.71,182.00 C249.25,185.02 247.64,188.18 247.14,189.00 C245.46,191.78 244.22,195.47 242.94,201.50 C242.24,204.80 241.35,207.95 240.97,208.50 C240.58,209.05 239.99,211.30 239.64,213.50 C239.29,215.70 238.57,219.75 238.03,222.50 C234.69,239.49 233.68,265.25 235.42,282.55 L 235.42 282.53 C235.07,281.13 234.38,279.74 233.90,279.44 C233.42,279.14 233.29,279.59 233.62,280.45 C233.95,281.30 233.72,282.00 233.11,282.00 C232.50,282.00 232.00,283.15 232.00,284.56 C232.00,286.01 232.43,286.85 233.00,286.50 C233.55,286.16 234.01,286.47 234.03,287.19 C234.05,288.02 234.43,287.87 235.06,286.79 C235.40,286.20 235.60,285.22 235.60,284.23 C235.82,286.11 236.07,287.87 236.36,289.50 C239.59,307.84 246.84,326.16 255.20,337.14 C260.91,344.64 266.79,350.86 273.30,356.07 C273.16,356.03 273.02,356.00 272.86,356.00 C270.59,356.00 281.61,366.58 286.98,369.56 C290.02,371.24 295.56,374.51 299.29,376.82 C306.63,381.37 307.72,381.70 328.00,385.67 C346.34,389.27 350.75,389.84 356.00,389.36 C358.48,389.13 365.00,388.72 370.50,388.46 C392.81,387.37 413.07,384.64 417.89,382.06 C418.98,381.48 420.56,381.00 421.41,381.00 C422.27,381.00 425.33,379.51 428.23,377.69 C431.13,375.86 435.58,373.60 438.12,372.65 C446.70,369.46 468.28,351.64 472.63,344.15 C474.11,341.59 476.60,337.93 478.16,336.02 C479.72,334.11 480.99,331.63 480.97,330.52 C480.93,328.18 478.33,324.78 475.35,323.19 C473.57,322.24 473.12,322.44 472.11,324.66 C470.27,328.70 464.75,335.45 458.29,342.08 C468.02,331.91 473.00,324.74 473.00,320.88 C473.00,317.71 471.16,316.13 458.00,307.98 C453.33,305.08 449.27,302.44 449.00,302.11 C448.72,301.77 447.15,300.79 445.50,299.93 C443.85,299.07 440.66,297.30 438.40,296.00 C434.69,293.85 434.00,293.76 431.10,294.96 C429.34,295.69 426.63,298.13 425.07,300.39 C418.04,310.61 405.33,319.05 392.00,322.34 C383.80,324.37 372.70,325.81 367.50,325.51 C365.30,325.39 359.46,325.16 354.52,325.00 C343.63,324.66 330.81,321.52 322.00,317.04 C320.07,316.06 317.95,314.66 315.78,313.00 C316.25,312.94 314.06,310.31 310.87,307.11 ZM 125.70 388.10 C128.34,387.60 134.32,386.66 139.00,386.00 C145.90,385.03 149.77,383.71 159.60,378.95 C182.43,367.90 193.90,356.21 204.68,333.00 C209.71,322.18 214.67,304.75 216.97,289.85 C217.43,286.91 218.28,282.02 218.87,279.00 C221.69,264.49 224.03,250.22 224.02,247.61 C223.99,243.39 227.83,221.24 229.50,216.00 C230.29,213.52 231.13,210.38 231.37,209.00 C231.61,207.62 232.36,204.37 233.02,201.76 C233.69,199.16 234.02,195.59 233.76,193.84 C233.51,192.10 233.93,188.60 234.70,186.08 C235.47,183.56 236.50,178.35 236.98,174.50 C238.65,161.14 242.05,137.45 243.67,127.90 C245.59,116.59 245.08,113.61 240.89,111.44 C239.20,110.57 237.69,110.00 237.53,110.18 C237.37,110.35 236.33,116.12 235.22,123.00 C235.04,124.09 234.82,125.43 234.57,126.94 C237.99,105.25 237.00,104.04 233.00,102.98 C231.62,102.62 211.82,102.42 189.00,102.54 C133.85,102.84 130.32,102.70 128.51,104.39 C128.22,104.66 127.98,104.97 127.58,105.34 C126.19,106.62 124.83,109.21 124.55,111.09 C124.27,112.96 123.59,117.82 123.03,121.88 C122.95,122.52 122.84,123.25 122.73,124.03 C122.68,123.81 122.61,123.58 122.52,123.35 C121.88,121.82 121.59,122.11 120.86,125.00 C120.37,126.93 119.48,129.35 118.89,130.39 C118.30,131.43 117.83,134.48 117.85,137.16 C117.87,140.30 117.51,141.82 116.85,141.40 C115.93,140.84 115.95,142.02 116.96,148.75 C116.98,148.89 117.39,149.00 117.88,149.00 C118.20,149.00 118.75,147.34 119.30,144.89 C118.78,148.35 118.74,150.63 119.80,152.13 C121.85,155.04 128.03,155.03 142.85,155.00 C144.22,155.00 145.66,155.00 147.19,155.00 C168.18,155.00 172.15,155.23 172.63,156.47 C172.69,156.64 172.69,157.10 172.64,157.83 C172.39,157.25 171.98,156.82 171.42,156.61 C168.84,155.62 158.17,155.92 157.50,157.00 C156.68,158.33 152.07,158.27 148.06,156.87 C145.70,156.05 143.82,156.03 141.16,156.82 C139.15,157.42 135.20,158.00 132.39,158.12 C128.02,158.31 127.35,158.61 127.75,160.14 C128.75,163.98 130.50,164.33 146.29,163.83 C159.07,163.42 164.06,163.64 170.21,164.86 C170.61,164.94 171.40,164.13 171.96,163.07 C172.00,163.00 172.03,162.94 172.06,162.88 C171.59,166.24 170.88,170.61 170.04,175.22 C165.85,198.17 158.58,241.01 157.43,249.50 C157.21,251.15 156.60,254.52 156.07,257.00 C155.64,259.05 155.08,262.33 154.71,264.96 C154.47,263.56 153.35,263.65 152.51,265.75 C152.13,266.71 151.58,269.86 151.29,272.75 C150.76,278.06 151.96,279.55 152.93,276.31 C151.16,285.85 148.66,296.59 147.97,296.83 C147.43,297.02 147.00,298.02 147.00,299.06 C147.00,302.11 141.59,311.25 137.08,315.80 C132.06,320.88 127.62,323.22 118.94,325.37 C103.10,329.30 77.62,325.91 56.02,317.01 C47.67,313.57 44.10,313.26 41.14,315.75 C39.42,317.20 27.46,337.03 19.89,350.99 C16.02,358.11 17.95,361.72 28.04,366.28 C29.46,366.92 30.98,367.56 32.58,368.18 C25.17,365.72 23.19,365.15 24.19,365.73 C24.58,365.95 24.67,366.70 24.40,367.39 C24.11,368.15 25.55,369.40 27.96,370.48 C30.18,371.48 32.00,372.69 32.00,373.15 C32.00,373.62 32.42,374.00 32.94,374.00 C33.46,374.00 37.62,375.75 42.19,377.88 C46.76,380.01 52.53,382.24 55.00,382.82 C59.98,384.00 86.93,387.80 94.00,388.32 C104.11,389.06 121.20,388.94 125.70,388.10 ZM 385.91 439.53 C390.27,437.25 393.66,432.77 395.46,426.92 C396.12,424.76 396.56,423.41 396.59,422.05 C396.64,419.61 395.34,417.14 391.50,409.90 L 391.03 409.00 C389.43,405.98 388.30,402.97 388.51,402.31 C388.95,400.95 380.83,397.55 378.82,398.25 C378.07,398.51 379.00,399.36 381.00,400.23 C381.04,400.24 381.07,400.26 381.11,400.28 C376.84,398.61 369.77,398.65 365.60,400.39 C364.54,400.83 363.36,401.66 362.20,402.69 C362.22,402.67 362.25,402.64 362.28,402.61 C366.10,398.89 366.91,398.53 370.89,398.81 C373.30,398.99 375.75,398.65 376.34,398.06 C377.09,397.31 375.78,397.00 371.86,397.00 C366.71,397.00 365.94,397.33 360.73,401.75 C357.65,404.36 355.10,407.01 355.07,407.64 C354.97,409.25 352.59,409.98 350.91,408.92 C350.13,408.43 348.07,408.02 346.33,408.02 C344.58,408.01 340.83,407.46 338.00,406.81 C334.27,405.95 332.36,405.92 331.11,406.70 C326.40,409.64 316.49,410.42 296.27,409.43 C290.10,409.12 284.30,409.29 283.39,409.80 C282.38,410.37 280.28,410.35 277.93,409.75 C275.11,409.04 273.30,409.14 271.02,410.14 C268.13,411.42 268.62,411.54 279.22,412.12 C283.26,412.35 289.68,412.47 295.92,412.48 C242.50,413.04 202.92,413.89 201.70,414.59 C200.06,415.54 200.16,415.75 202.70,416.95 C204.85,417.95 219.80,418.45 267.00,419.09 C295.44,419.48 315.40,419.81 329.16,420.17 C292.91,419.57 206.81,419.40 204.56,420.09 C203.50,420.41 200.59,420.29 198.09,419.83 C193.05,418.88 130.15,418.52 129.24,419.42 C128.21,420.46 129.49,420.89 134.03,421.04 C136.49,421.13 148.18,421.87 160.00,422.69 C171.82,423.51 183.98,424.35 187.00,424.56 C190.02,424.76 205.10,425.17 220.50,425.46 C235.90,425.75 251.24,426.26 254.58,426.59 C257.93,426.92 265.58,426.69 271.58,426.06 C279.64,425.23 286.04,425.22 296.00,426.03 C303.42,426.64 319.75,427.39 332.27,427.70 C356.95,428.30 355.79,428.03 360.25,434.23 C360.94,435.18 364.20,437.32 367.50,438.97 C372.54,441.51 374.28,441.90 378.41,441.44 C381.10,441.14 384.48,440.28 385.91,439.53 ZM 305.33 476.99 C311.20,476.96 316.66,472.22 317.97,466.00 C318.49,463.52 319.20,460.34 319.54,458.92 C320.14,456.47 319.10,453.40 315.49,446.92 C312.99,442.42 305.44,435.00 303.43,435.05 C301.73,435.10 301.80,435.31 304.00,436.79 C311.80,442.06 314.81,448.45 313.09,456.10 C311.28,464.17 305.44,468.99 298.97,469.89 C305.61,468.88 311.37,463.75 313.09,456.10 C315.03,447.45 309.81,438.76 301.10,436.15 C296.04,434.63 290.55,435.76 286.37,438.81 C286.57,438.66 286.76,438.52 286.95,438.39 C290.44,436.02 290.44,436.00 287.81,436.00 C285.93,436.00 284.11,437.22 281.58,440.18 C279.61,442.48 278.00,444.88 278.00,445.52 C278.00,446.27 275.80,446.70 271.82,446.74 C267.13,446.78 264.98,446.31 262.91,444.78 C259.23,442.06 253.00,442.20 249.09,445.09 C247.45,446.31 245.86,447.91 245.58,448.65 C245.37,449.21 245.38,449.58 245.55,449.79 C244.03,449.97 241.86,450.00 238.48,450.00 C218.71,450.00 199.00,451.27 199.00,452.55 C199.00,454.75 202.14,455.14 224.80,455.73 C228.62,455.83 231.80,455.92 234.47,456.02 C227.80,456.01 217.66,456.14 202.10,456.35 C177.57,456.68 157.27,456.98 157.00,457.01 C156.73,457.05 158.07,457.81 160.00,458.70 C162.54,459.87 167.05,460.38 176.50,460.56 C183.65,460.70 195.35,461.32 202.50,461.94 C209.65,462.55 217.40,462.80 219.71,462.47 C222.03,462.15 224.75,462.33 225.75,462.87 C226.76,463.41 231.39,464.35 236.04,464.96 C240.69,465.58 247.87,467.22 251.98,468.62 C260.18,471.40 263.37,471.26 267.83,467.97 C271.93,464.94 279.96,466.10 284.91,470.45 C291.30,476.05 296.23,478.33 299.83,477.36 C300.56,477.16 303.04,476.99 305.33,476.99 ZM 444.37 272.05 C447.21,270.97 448.58,268.86 449.29,264.50 C449.94,260.48 458.48,235.70 461.03,230.43 C462.15,228.12 464.12,222.02 465.42,216.87 C466.96,210.71 469.69,203.86 473.38,196.87 C476.66,190.66 479.00,184.96 479.00,183.18 C479.00,181.49 479.45,179.84 480.00,179.50 C482.10,178.20 480.85,174.97 477.05,171.92 C474.89,170.18 472.67,167.49 472.13,165.94 C470.29,160.66 461.29,158.74 457.67,162.85 C454.83,166.09 450.00,176.33 450.00,179.14 C450.00,182.52 450.73,182.72 451.91,180.00 C449.62,186.88 447.35,192.93 446.87,193.45 C446.39,193.97 446.00,195.17 446.00,196.12 C446.00,197.06 445.37,199.11 444.60,200.67 C441.75,206.42 440.00,211.12 440.00,213.01 C440.00,213.64 439.76,214.72 439.40,215.97 C439.48,215.24 439.20,215.00 438.56,215.00 C437.31,215.00 436.04,217.89 436.01,220.81 C436.00,222.48 437.05,221.80 438.05,219.87 C437.24,221.92 436.38,223.68 435.87,224.02 C435.45,224.31 434.68,226.34 434.14,228.52 C432.53,235.13 430.38,242.11 427.60,249.78 C424.82,257.46 425.05,259.66 428.91,262.78 C429.65,263.37 431.13,263.65 432.78,263.65 C430.96,263.66 429.21,263.39 428.08,262.79 C425.46,261.40 424.78,258.30 426.08,253.75 C426.67,251.67 426.51,251.00 425.43,251.00 C424.07,251.00 423.45,253.91 423.86,258.39 C423.95,259.44 425.60,262.02 427.51,264.15 C429.43,266.27 431.00,268.83 431.00,269.84 C431.00,270.84 431.30,271.97 431.67,272.33 C432.67,273.33 441.51,273.14 444.37,272.05 ZM 398.20 222.80 C397.54,222.14 397.00,220.82 397.00,219.86 C397.00,217.55 407.51,209.55 414.74,206.35 C421.34,203.44 421.96,202.73 421.98,198.20 C422.00,195.10 421.04,193.73 415.84,189.42 C414.95,188.68 414.32,189.03 413.32,191.01 C413.92,189.21 413.43,187.53 412.38,185.43 C411.35,183.34 409.79,181.21 408.91,180.68 C406.57,179.26 400.93,180.65 397.50,183.48 C392.86,187.31 392.86,187.32 386.63,190.50 C383.41,192.15 380.55,194.06 380.28,194.75 C380.01,195.44 379.23,196.00 378.55,196.00 C377.86,196.00 376.27,196.90 375.00,198.00 C373.73,199.10 372.28,200.00 371.78,200.00 C371.27,200.00 368.87,201.37 366.43,203.05 L 362.00 206.10 L 362.00 212.49 C362.00,217.69 362.42,219.37 364.25,221.47 C365.31,222.68 372.27,227.48 380.61,232.79 C365.16,223.19 363.00,222.17 363.00,223.87 C363.00,225.61 367.28,230.11 368.49,229.64 C369.18,229.38 370.35,230.29 371.09,231.66 C372.16,233.67 372.97,234.06 375.16,233.62 C377.26,233.20 378.03,233.51 378.50,234.99 C378.83,236.04 379.93,237.16 380.94,237.48 C381.95,237.80 383.93,239.13 385.34,240.44 C386.75,241.75 390.60,244.09 393.91,245.66 C397.21,247.22 400.19,249.30 400.53,250.28 C401.42,252.83 405.61,255.29 410.38,256.07 C412.65,256.45 414.83,256.81 415.23,256.87 C415.63,256.94 416.72,255.76 417.66,254.25 C418.59,252.74 420.00,250.97 420.78,250.32 C423.41,248.13 421.34,241.42 416.42,236.17 L 412.03 231.50 L 412.99 234.92 C413.52,236.79 413.69,239.39 413.37,240.68 C413.15,241.56 412.61,242.48 411.90,243.33 C413.36,241.15 413.92,238.29 413.03,235.61 C412.19,233.06 409.40,230.90 397.50,223.58 C395.90,222.59 394.35,221.62 392.90,220.71 C395.86,222.51 398.45,223.97 398.95,223.98 C399.20,223.99 398.86,223.46 398.20,222.80 ZM 234.35 269.25 C234.07,264.44 234.27,255.32 234.81,249.00 C235.78,237.48 234.71,231.17 233.43,240.85 C233.05,243.68 232.32,246.00 231.80,246.00 C230.90,246.00 231.04,250.39 232.56,270.25 C233.38,280.95 234.99,280.06 234.35,269.25 ZM 363.16 221.12 C362.43,220.66 361.92,219.98 362.03,219.62 C362.13,219.26 361.89,216.84 361.49,214.23 C360.91,210.47 360.59,209.91 359.95,211.50 C357.94,216.49 359.77,221.89 363.50,221.95 C364.05,221.96 363.90,221.59 363.16,221.12 ZM 261.00 412.00 C262.10,411.29 261.34,411.03 258.19,411.02 C255.57,411.01 254.12,411.39 254.50,412.00 C255.28,413.27 259.04,413.27 261.00,412.00 ZM 453.62 175.09 C455.59,168.70 455.71,168.28 455.88,167.22 C456.00,166.40 457.68,165.27 459.67,164.38 C457.54,165.97 455.81,169.15 453.62,175.09 ZM 147.00 456.00 C145.06,454.75 144.00,454.75 144.00,456.00 C144.00,456.55 145.01,456.99 146.25,456.98 C148.07,456.97 148.21,456.78 147.00,456.00 ZM 120.51 137.91 C121.01,134.28 121.31,130.83 121.23,129.54 C121.13,127.92 121.55,126.28 122.17,125.90 C122.30,125.82 122.41,125.71 122.50,125.59 C121.91,129.52 121.13,134.37 120.51,137.88 ZM 338.18 412.00 L 348.89 412.00 C347.02,412.05 344.69,412.07 341.78,412.09 C329.08,412.17 316.72,412.27 304.93,412.38 C305.09,412.38 305.25,412.38 305.41,412.37 C313.61,412.17 328.36,412.00 338.18,412.00 ZM 281.39 361.82 C279.31,360.67 277.57,359.72 276.75,359.29 C275.24,358.50 274.00,357.44 274.00,356.93 C274.00,356.79 273.96,356.66 273.90,356.55 C276.30,358.44 278.79,360.19 281.39,361.82 ZM 451.22 348.90 C447.68,352.11 444.15,355.01 441.00,357.20 C436.27,360.50 431.00,363.52 425.33,366.21 C434.82,361.59 443.40,355.85 451.22,348.90 ZM 387.88 424.80 C384.09,430.66 377.00,434.26 370.07,432.62 C376.59,433.98 383.89,430.63 387.88,424.80 ZM 154.62 368.85 C166.53,362.94 176.58,354.84 184.61,344.65 C176.56,355.02 166.67,362.97 154.62,368.85 ZM 309.47 307.54 C305.39,303.59 301.71,299.19 299.62,295.47 C299.58,295.40 299.54,295.34 299.51,295.27 C301.09,298.08 305.58,303.45 309.47,307.54 ZM 387.06 378.04 C372.86,380.43 352.29,380.78 336.10,379.18 C352.30,380.70 373.31,380.36 387.06,378.04 ZM 383.31 401.42 C386.43,403.33 388.47,406.02 389.73,409.85 C388.46,406.40 386.16,403.29 383.31,401.42 ZM 526.56 203.09 C527.12,203.50 527.63,203.88 528.08,204.24 C531.12,206.59 532.88,208.76 533.50,211.18 C532.77,208.65 530.64,206.20 526.56,203.09 ZM 118.54 379.39 C124.94,378.56 131.03,377.32 136.79,375.68 C130.90,377.41 124.92,378.63 118.54,379.39 ZM 291.15 258.62 C290.63,238.30 294.99,215.64 303.92,197.88 C295.02,215.59 290.65,238.30 291.15,258.62 ZM 308.38 373.63 C302.42,371.89 297.20,369.97 292.53,367.80 C297.39,370.00 302.64,371.93 308.38,373.63 ZM 505.00 189.19 C508.71,191.42 512.66,193.87 516.32,196.21 C511.53,193.22 507.97,191.01 505.00,189.19 ZM 71.15 378.24 C66.45,377.53 61.78,376.62 57.04,375.49 C61.74,376.57 66.51,377.50 71.15,378.24 ZM 406.12 198.45 C409.40,196.08 411.41,194.25 412.51,192.61 C411.57,194.13 409.71,195.88 406.12,198.45 ZM 464.75 163.00 C464.80,163.00 464.85,163.00 464.90,163.00 C466.51,163.00 468.00,163.53 469.19,164.41 C467.98,163.55 466.46,163.04 464.75,163.00 ZM 285.74 465.84 C284.59,464.85 283.50,463.67 282.52,462.31 C283.37,463.48 284.54,464.75 285.74,465.84 ZM 360.53 426.91 C358.52,425.07 357.00,423.25 357.00,422.41 C357.00,423.23 358.53,425.06 360.53,426.91 ZM 383.00 213.87 C383.00,213.86 383.00,213.86 383.00,213.85 C383.00,213.41 384.01,212.43 385.25,211.69 C384.05,212.41 383.07,213.37 383.00,213.87 ZM 252.47 461.57 C253.96,462.44 255.49,463.00 256.65,463.00 C255.46,463.00 253.96,462.45 252.47,461.57 ZM 250.00 447.50 C249.48,448.05 249.04,448.48 248.55,448.82 C249.03,448.45 249.52,448.01 250.00,447.50 ZM 435.99 263.35 C437.54,263.04 438.90,262.52 439.58,261.83 C438.89,262.52 437.55,263.04 435.99,263.35 ZM 217.62 227.23 C216.90,231.53 216.19,235.81 215.49,240.00 C214.52,245.87 213.63,251.18 212.83,256.00 C213.63,251.18 214.52,245.87 215.49,240.00 C216.19,235.80 216.90,231.52 217.62,227.23 ZM 357.49 408.48 C357.36,408.72 357.23,408.96 357.12,409.20 C357.21,408.98 357.34,408.74 357.49,408.48 ZM 405.78 246.99 C405.71,247.00 405.64,247.00 405.57,247.00 C405.57,247.00 405.56,247.00 405.56,247.00 C405.63,247.00 405.71,247.00 405.78,246.99 Z" fill="rgb(34,51,71)"/>
<path d="M 332.86 412.15 C329.13,412.24 324.82,412.34 319.84,412.44 C299.85,412.87 279.94,413.50 275.58,413.86 C265.37,414.69 264.35,416.61 273.70,417.40 C277.44,417.72 284.12,418.43 288.55,418.99 C290.05,419.18 292.46,419.35 295.41,419.51 C287.04,419.37 277.61,419.24 267.00,419.09 C219.80,418.45 204.85,417.95 202.70,416.95 C200.16,415.75 200.06,415.54 201.70,414.59 C202.92,413.89 242.50,413.04 295.92,412.48 L 295.92 412.48 C299.08,412.48 302.19,412.45 304.93,412.38 L 304.93 412.38 C313.94,412.30 323.29,412.22 332.86,412.15 ZM 247.00 456.78 C245.68,456.24 242.74,456.03 234.47,456.02 C231.80,455.92 228.62,455.83 224.80,455.73 C202.14,455.14 199.00,454.75 199.00,452.55 C199.00,451.27 218.71,450.00 238.48,450.00 C241.86,450.00 244.03,449.97 245.55,449.79 C245.95,450.25 247.18,449.87 248.55,448.82 C248.80,448.65 249.03,448.46 249.26,448.24 C247.70,449.78 245.64,451.01 244.56,451.02 C241.82,451.04 239.59,452.53 240.38,453.81 C240.74,454.38 242.37,455.14 244.01,455.50 C245.02,455.72 246.13,456.21 247.00,456.78 ZM 323.24 420.03 C336.14,420.13 345.92,420.50 351.56,421.10 C349.36,420.89 346.45,420.70 342.75,420.52 C340.14,420.39 335.39,420.27 329.16,420.17 C327.30,420.12 325.33,420.07 323.24,420.03 ZM 255.58 445.02 C258.20,444.67 260.85,445.12 262.00,446.50 C261.26,445.60 259.07,445.00 256.56,445.00 C256.22,445.00 255.89,445.01 255.58,445.02 ZM 362.20 402.69 C363.36,401.66 364.54,400.84 365.60,400.39 C364.53,400.84 363.32,401.69 362.12,402.76 C362.15,402.74 362.17,402.71 362.20,402.69 ZM 250.11 447.39 C250.18,447.31 250.27,447.24 250.35,447.16 C250.27,447.23 250.19,447.31 250.11,447.39 Z" fill="rgb(132,123,105)"/>
<path d="M 406.12 198.45 C401.94,201.45 395.41,205.55 385.25,211.69 C384.01,212.43 383.00,213.41 383.00,213.85 C383.00,213.86 383.00,213.86 383.00,213.87 C383.00,213.89 383.00,213.90 383.00,213.92 C383.00,214.37 388.38,217.95 392.90,220.71 C394.35,221.62 395.90,222.59 397.50,223.58 C409.40,230.90 412.19,233.06 413.03,235.61 C413.92,238.29 413.36,241.15 411.90,243.33 C410.30,245.27 407.76,246.89 405.78,246.99 C405.71,247.00 405.63,247.00 405.56,247.00 C404.30,246.96 394.71,241.57 384.17,235.00 C382.91,234.22 381.73,233.48 380.61,232.79 C372.27,227.48 365.31,222.68 364.25,221.47 C362.42,219.37 362.00,217.69 362.00,212.49 L 362.00 206.10 L 366.43 203.05 C368.87,201.37 371.27,200.00 371.78,200.00 C372.28,200.00 373.73,199.10 375.00,198.00 C376.27,196.90 377.86,196.00 378.55,196.00 C379.23,196.00 380.01,195.44 380.28,194.75 C380.55,194.06 383.41,192.15 386.63,190.50 C392.86,187.32 392.86,187.31 397.50,183.48 C400.93,180.65 406.57,179.26 408.91,180.68 C409.79,181.21 411.35,183.34 412.38,185.43 C413.43,187.53 413.92,189.21 413.32,191.01 C413.18,191.28 413.04,191.58 412.89,191.92 C412.78,192.14 412.66,192.38 412.51,192.61 C411.41,194.25 409.40,196.08 406.12,198.45 ZM 438.85 218.00 C439.17,217.09 439.35,216.43 439.40,215.97 C439.76,214.72 440.00,213.64 440.00,213.01 C440.00,211.12 441.75,206.42 444.60,200.67 C445.37,199.11 446.00,197.06 446.00,196.12 C446.00,195.17 446.39,193.97 446.87,193.45 C447.35,192.93 449.62,186.88 451.91,180.00 C451.91,180.00 451.91,180.00 451.92,180.00 C452.36,178.98 452.86,177.56 453.42,175.75 L 453.62 175.09 C455.81,169.15 457.54,165.97 459.67,164.38 C461.38,163.62 463.33,163.04 464.75,163.00 C466.46,163.04 467.98,163.55 469.19,164.41 C470.89,165.67 472.00,167.66 472.00,169.88 C472.00,171.47 470.83,175.85 469.40,179.63 C467.97,183.41 465.09,191.45 463.00,197.50 C460.92,203.55 457.34,213.68 455.05,220.00 C452.77,226.32 448.65,238.02 445.89,246.00 C443.14,253.98 440.29,261.10 439.58,261.83 C438.89,262.52 437.56,263.04 435.99,263.35 L 435.99 263.35 C434.97,263.54 433.86,263.65 432.78,263.65 C431.13,263.65 429.65,263.37 428.91,262.78 C425.05,259.66 424.82,257.46 427.60,249.78 C430.38,242.11 432.53,235.13 434.14,228.52 C434.68,226.34 435.45,224.31 435.87,224.02 C436.38,223.68 437.24,221.92 438.05,219.87 C438.33,219.33 438.61,218.70 438.85,218.00 ZM 526.56 203.09 C530.64,206.20 532.77,208.65 533.50,211.18 C534.05,213.33 533.71,215.69 532.55,218.55 C530.94,222.54 529.95,223.30 510.50,235.49 C498.35,243.10 492.24,246.41 489.22,246.99 C488.10,246.86 486.16,245.77 484.74,244.46 C481.59,241.53 481.08,236.76 483.54,233.24 C484.39,232.03 488.33,229.17 492.29,226.88 C496.75,224.32 500.93,221.83 504.36,219.74 L 504.36 219.74 C510.18,216.24 512.94,214.40 512.96,214.00 C512.98,213.73 507.03,209.92 499.75,205.55 C494.61,202.47 490.90,200.22 488.24,198.48 C482.54,194.66 482.00,193.21 482.01,190.08 C482.04,184.57 483.95,181.69 487.86,181.25 C489.23,181.09 490.47,181.22 492.87,182.30 C495.71,183.74 500.15,186.28 505.00,189.19 C507.97,191.01 511.53,193.22 515.85,195.92 C520.33,198.78 523.98,201.21 526.56,203.09 ZM 387.88 424.80 C383.89,430.63 376.59,433.98 370.07,432.62 C368.94,432.35 367.81,431.95 366.70,431.39 C364.80,430.43 362.44,428.66 360.53,426.91 C358.53,425.06 357.00,423.23 357.00,422.41 L 357.00 422.41 C357.00,421.87 355.32,421.45 351.56,421.10 L 351.55 421.10 C345.92,420.50 336.14,420.13 323.24,420.03 C315.63,419.85 306.44,419.68 295.41,419.51 C292.46,419.35 290.05,419.18 288.55,418.99 C284.12,418.43 277.44,417.72 273.70,417.40 C264.35,416.61 265.37,414.69 275.58,413.86 C279.94,413.50 299.85,412.87 319.84,412.44 C324.82,412.34 329.13,412.24 332.86,412.15 C335.82,412.13 338.79,412.11 341.78,412.09 C344.69,412.07 347.02,412.05 348.89,412.00 L 356.05 412.00 L 357.05 409.36 C357.07,409.31 357.10,409.25 357.12,409.20 C357.23,408.96 357.36,408.72 357.49,408.48 C358.39,406.93 360.25,404.61 362.12,402.76 C363.32,401.69 364.53,400.84 365.60,400.39 L 365.60 400.39 L 365.60 400.39 C369.77,398.65 376.84,398.61 381.11,400.28 C381.90,400.62 382.63,401.00 383.31,401.42 C386.16,403.29 388.46,406.40 389.73,409.85 C389.87,410.27 390.00,410.71 390.12,411.16 C391.45,416.13 390.38,420.95 387.88,424.80 ZM 250.00 447.50 C250.03,447.46 250.07,447.43 250.11,447.39 C250.19,447.31 250.27,447.23 250.35,447.16 C251.63,446.02 253.60,445.29 255.58,445.02 C255.89,445.01 256.22,445.00 256.56,445.00 C259.07,445.00 261.26,445.60 262.00,446.50 C262.92,447.61 265.37,448.00 271.40,448.00 L 279.55 448.00 L 281.49 444.39 C282.46,442.60 284.55,440.22 286.37,438.81 C290.55,435.76 296.04,434.63 301.10,436.15 C309.81,438.76 315.03,447.45 313.09,456.10 C311.37,463.75 305.61,468.88 298.97,469.89 C294.48,470.51 289.69,469.24 285.74,465.84 C284.54,464.75 283.37,463.48 282.52,462.31 L 279.50 458.12 L 272.14 458.06 C265.71,458.01 264.42,458.31 261.82,460.50 C260.18,461.88 257.86,463.00 256.65,463.00 C255.49,463.00 253.96,462.44 252.47,461.57 C250.82,460.58 249.19,459.18 248.10,457.67 C247.84,457.31 247.58,457.01 247.00,456.78 C246.13,456.21 245.02,455.72 244.01,455.50 C242.37,455.14 240.74,454.38 240.38,453.81 C239.59,452.53 241.82,451.04 244.56,451.02 C245.64,451.01 247.70,449.78 249.26,448.24 C249.50,448.02 249.74,447.78 250.00,447.50 Z" fill="rgb(242,156,32)"/>
<path d="M 86.50 379.96 C68.33,378.95 42.94,373.01 28.04,366.28 C17.95,361.72 16.02,358.11 19.89,350.99 C27.46,337.03 39.42,317.20 41.14,315.75 C44.10,313.26 47.67,313.57 56.02,317.01 C77.62,325.91 103.10,329.30 118.94,325.37 C127.62,323.22 132.06,320.88 137.08,315.80 C141.59,311.25 147.00,302.11 147.00,299.06 C147.00,298.02 147.43,297.02 147.97,296.83 C148.93,296.50 153.34,276.02 154.50,266.50 C154.84,263.75 155.55,259.48 156.07,257.00 C156.60,254.52 157.21,251.15 157.43,249.50 C158.58,241.01 165.85,198.17 170.04,175.22 C171.77,165.72 172.94,157.28 172.63,156.47 C172.15,155.23 168.18,155.00 147.19,155.00 C115.92,155.00 117.36,155.92 120.51,137.88 C121.34,133.14 122.48,125.94 123.03,121.88 C123.59,117.82 124.27,112.96 124.55,111.09 C124.83,109.21 126.19,106.62 127.58,105.34 C130.49,102.64 125.17,102.88 189.00,102.54 C211.82,102.42 231.62,102.62 233.00,102.98 C238.44,104.42 238.32,106.15 229.04,159.50 C226.84,172.15 220.74,208.38 215.49,240.00 C205.18,302.10 205.27,301.62 201.03,313.57 C196.53,326.25 192.25,334.54 185.76,343.16 C169.72,364.45 145.13,376.97 113.50,379.96 C107.45,380.53 101.82,380.93 101.00,380.84 C100.18,380.76 93.65,380.36 86.50,379.96 ZM 323.66 377.41 C291.02,370.65 272.36,359.67 255.20,337.14 C246.84,326.16 239.59,307.84 236.36,289.50 C233.44,272.92 234.21,241.97 238.03,222.50 C238.57,219.75 239.29,215.70 239.64,213.50 C239.99,211.30 240.58,209.05 240.97,208.50 C241.35,207.95 242.24,204.80 242.94,201.50 C244.22,195.47 245.46,191.78 247.14,189.00 C247.64,188.18 249.25,185.02 250.71,182.00 C265.67,151.03 288.30,127.90 316.00,115.24 C320.12,113.35 325.89,110.70 328.81,109.35 C331.73,107.99 337.80,106.22 342.31,105.41 C346.81,104.60 354.10,103.28 358.50,102.49 C369.03,100.58 397.39,100.57 411.56,102.46 C423.93,104.12 437.94,107.94 445.44,111.69 C456.98,117.47 456.94,119.21 444.86,138.73 C433.49,157.09 431.68,159.48 427.88,161.05 C425.34,162.10 423.96,162.05 419.67,160.73 C403.87,155.87 401.05,155.50 380.50,155.53 C362.80,155.56 359.58,155.82 352.50,157.82 C329.86,164.23 314.44,176.94 303.92,197.88 C288.71,228.14 286.75,272.63 299.62,295.47 C303.84,302.97 314.46,313.20 322.00,317.04 C330.81,321.52 343.63,324.66 354.52,325.00 C359.46,325.16 365.30,325.39 367.50,325.51 C372.70,325.81 383.80,324.37 392.00,322.34 C405.33,319.05 418.04,310.61 425.07,300.39 C426.63,298.13 429.34,295.69 431.10,294.96 C434.00,293.76 434.69,293.85 438.40,296.00 C440.66,297.30 443.85,299.07 445.50,299.93 C447.15,300.79 448.72,301.77 449.00,302.11 C449.27,302.44 453.33,305.08 458.00,307.98 C471.16,316.13 473.00,317.71 473.00,320.88 C473.00,324.77 467.95,332.02 458.07,342.30 C439.62,361.51 416.73,373.03 387.06,378.04 C369.37,381.02 339.66,380.73 323.66,377.41 Z" fill="rgb(252,253,253)"/>
</g>
</svg>